<svg width="1200" height="60" viewBox="0 0 1200 60" fill="none" xmlns="http://www.w3.org/2000/svg">
<rect width="34.0694" height="60" fill="#FA8072"/>
<rect x="476.972" width="34.0694" height="60" fill="#FA8072"/>
<rect x="52.9968" width="34.0694" height="60" fill="#FA8072"/>
<rect x="529.969" width="34.0694" height="60" fill="#FA8072"/>
<rect x="105.994" width="34.0694" height="60" fill="#FA8072"/>
<rect x="582.965" width="34.0694" height="60" fill="#FA8072"/>
<rect x="158.991" width="34.0694" height="60" fill="#FA8072"/>
<rect x="635.962" width="34.0694" height="60" fill="#FA8072"/>
<rect x="211.987" width="34.0694" height="60" fill="#FA8072"/>
<rect x="688.959" width="34.0694" height="60" fill="#FA8072"/>
<rect x="264.984" width="34.0694" height="60" fill="#FA8072"/>
<rect x="741.956" width="34.0694" height="60" fill="#FA8072"/>
<rect x="317.981" width="34.0694" height="60" fill="#FA8072"/>
<rect x="794.953" width="34.0694" height="60" fill="#FA8072"/>
<rect x="370.978" width="34.0694" height="60" fill="#FA8072"/>
<rect x="847.95" width="34.0694" height="60" fill="#FA8072"/>
<rect x="423.975" width="34.0694" height="60" fill="#FA8072"/>
<rect x="953.943" width="34.0694" height="60" fill="#FA8072"/>
<rect x="1006.94" width="34.0694" height="60" fill="#FA8072"/>
<rect x="1059.94" width="34.0694" height="60" fill="#FA8072"/>
<rect x="1112.93" width="34.0694" height="60" fill="#FA8072"/>
<rect x="1165.93" width="34.0694" height="60" fill="#FA8072"/>
<rect x="900.946" width="34.0694" height="60" fill="#FA8072"/>
</svg>
