<svg width="1086" height="264" viewBox="0 0 1086 264" fill="none" xmlns="http://www.w3.org/2000/svg">
<path d="M715.5 30C667.5 30 633.833 67.3333 623 86V187.5C623 222.3 684.667 240.667 715.5 245.5H1061.5C1077.9 245.5 1084.67 229.833 1086 222V51.5C1086 39.1 1069.67 32 1061.5 30H715.5Z" fill="#3B2F2F"/>
<path d="M370.5 30C418.5 30 452.167 67.3333 463 86V187.5C463 222.3 401.333 240.667 370.5 245.5H24.5C8.10001 245.5 1.33334 229.833 0 222V51.5C0 39.1 16.3333 32 24.5 30H370.5Z" fill="#3B2F2F"/>
<rect x="430" width="226" height="264" rx="44" fill="#3B2F2F"/>
</svg>
