<svg width="261" height="184" viewBox="0 0 261 184" fill="none" xmlns="http://www.w3.org/2000/svg">
<ellipse cx="96.7544" cy="29.2674" rx="96.7544" ry="29.2674" fill="#38220F"/>
<path fill-rule="evenodd" clip-rule="evenodd" d="M0.0803096 42.5263C2.16757 58.1348 44.6819 70.595 96.8224 70.595C148.963 70.595 191.478 58.1346 193.565 42.5259C193.618 44.3674 193.645 46.2184 193.645 48.0782C193.645 122.692 150.296 183.179 96.8224 183.179C43.3489 183.179 4.18948e-05 122.692 4.18948e-05 48.0782C4.18948e-05 46.2185 0.0269693 44.3677 0.0803096 42.5263Z" fill="#38220F"/>
<path d="M204.708 49.302C203.843 50.1788 203.033 51.0564 202.288 51.918C202.483 50.9099 203.359 50.0367 204.708 49.302C216.863 36.9803 240.051 24.8163 252.173 59.6402C265.157 96.9423 214.342 121.644 187.311 129.332C203.955 123.668 236.768 106.636 244.034 86.2975C249.885 69.923 245.695 55.0552 233.465 48.4806C227.833 45.4531 211.047 45.8481 204.708 49.302Z" fill="#38220F"/>
</svg>
