<svg width="437" height="278" viewBox="0 0 437 278" fill="none" xmlns="http://www.w3.org/2000/svg">
<path fill-rule="evenodd" clip-rule="evenodd" d="M47.3897 216C220.134 282.8 290.96 117.5 290.96 0H347.46C348.824 9.55146 349.765 20.1605 350.169 31.5C350.586 43.1779 350.434 55.6303 349.593 68.5C347.539 99.9137 341.373 133.813 329.323 165C324.828 176.634 319.515 187.891 313.29 198.5C286.433 244.275 242.62 278 174.46 278C115.613 278 74.7145 252.783 47.3897 216ZM313.29 198.5C475.96 134 414.96 34.5 372.96 23.8293C414.65 22.4183 454.818 77.4074 428.46 124.5C390.96 191.5 313.29 198.5 313.29 198.5Z" fill="white"/>
<path fill-rule="evenodd" clip-rule="evenodd" d="M47.3897 216C220.134 282.8 290.96 117.5 290.96 0H347.46C348.824 9.55146 349.765 20.1605 350.169 31.5C350.586 43.1779 350.434 55.6303 349.593 68.5C347.539 99.9137 341.373 133.813 329.323 165C324.828 176.634 319.515 187.891 313.29 198.5C286.433 244.275 242.62 278 174.46 278C115.613 278 74.7145 252.783 47.3897 216ZM313.29 198.5C475.96 134 414.96 34.5 372.96 23.8293C414.65 22.4183 454.818 77.4074 428.46 124.5C390.96 191.5 313.29 198.5 313.29 198.5Z" fill="#E8DBCB"/>
<path d="M350.169 31.5C350.586 43.1779 350.434 55.6303 349.593 68.5C364.46 51.5 410.76 45.4 405.96 101C403.931 124.5 352.869 166.833 329.323 165C324.828 176.634 319.515 187.891 313.29 198.5C475.96 134 414.96 34.5 372.96 23.8293C365.071 24.0962 357.296 26.488 350.169 31.5Z" fill="white"/>
<path d="M290.96 0H3.4598C-5.89445 62.3613 2.11688 155.056 47.3897 216C220.134 282.8 290.96 117.5 290.96 0Z" fill="white"/>
</svg>
