<svg width="432" height="307" viewBox="0 0 432 307" fill="none" xmlns="http://www.w3.org/2000/svg">
<ellipse cx="161.057" cy="51.4298" rx="160.101" ry="48.429" fill="#E5D4BA"/>
<path fill-rule="evenodd" clip-rule="evenodd" d="M1.08913 73.3698C4.54316 99.1973 74.8919 119.815 161.169 119.815C247.448 119.815 317.797 99.1968 321.249 73.3688C321.338 76.416 321.382 79.479 321.382 82.5565C321.382 206.021 249.652 306.109 161.169 306.109C72.6861 306.109 0.956314 206.021 0.956314 82.5565C0.956314 79.4793 1.00087 76.4167 1.08913 73.3698Z" fill="#38220F"/>
<path d="M339.688 84.5812C338.257 86.0321 336.918 87.4844 335.685 88.91C336.007 87.2419 337.456 85.797 339.688 84.5812C359.801 64.1925 398.172 44.0645 418.229 101.688C439.714 163.412 355.629 204.286 310.902 217.008C338.442 207.635 392.738 179.452 404.762 145.798C414.443 118.703 407.51 94.1012 387.273 83.222C377.954 78.2124 350.178 78.8661 339.688 84.5812Z" fill="#38220F"/>
<path d="M58.6318 18.4471C78.9215 14.7145 88.7908 26.2732 91.1892 32.5191C86.862 28.8919 72.2509 28.787 63.6139 39.1538C51.939 53.1669 38.9144 49.765 33.8615 46.3123C33.0086 44.3629 33.2695 23.1129 58.6318 18.4471Z" fill="#6C4128"/>
<path d="M67.4176 64.5349C47.1278 68.2675 37.2585 56.7088 34.8601 50.4629C39.1874 54.0901 55.2876 52.4076 62.4355 43.8282C74.1103 29.8151 87.1349 33.217 92.1879 36.6697C93.0407 38.6191 92.7798 59.8691 67.4176 64.5349Z" fill="#6C4128"/>
<path d="M140.243 38.7008C158.589 48.135 159.347 63.315 157.432 69.7257C156.22 64.2109 144.714 55.2055 131.543 58.1408C113.741 62.1084 105.504 51.4609 103.611 45.6412C104.126 43.5766 117.309 26.9081 140.243 38.7008Z" fill="#6C4128"/>
<path d="M119.056 80.5627C100.71 71.1286 99.9526 55.9485 101.867 49.5378C103.079 55.0526 116.856 63.552 127.756 61.1228C145.558 57.1551 153.795 67.8026 155.688 73.6224C155.173 75.6869 141.99 92.3554 119.056 80.5627Z" fill="#6C4128"/>
<path d="M175.598 19.1604C191.756 6.33331 205.899 11.9006 210.95 16.2876C205.426 15.1185 192.479 21.8901 189.724 35.0993C186.001 52.9544 172.905 56.0701 166.823 55.396C165.154 54.0758 155.401 35.1942 175.598 19.1604Z" fill="#6C4128"/>
<path d="M205.006 55.7182C188.848 68.5452 174.706 62.978 169.654 58.5909C175.178 59.76 188.601 50.711 190.88 39.7793C194.603 21.9241 207.699 18.8084 213.782 19.4825C215.451 20.8027 225.203 39.6843 205.006 55.7182Z" fill="#6C4128"/>
<path d="M237.472 32.2505C256.045 23.2693 268.627 31.7959 272.596 37.1819C267.461 34.8325 253.346 38.6072 247.768 50.8938C240.229 67.5019 226.769 67.6768 220.981 65.6883C219.641 64.0349 214.256 43.477 237.472 32.2505Z" fill="#6C4128"/>
<path d="M258.169 74.3566C239.596 83.3378 227.014 74.8112 223.045 69.4253C228.179 71.7746 243.256 65.8815 247.872 55.7133C255.412 39.1052 268.872 38.9303 274.66 40.9188C275.999 42.5722 281.385 63.1301 258.169 74.3566Z" fill="#6C4128"/>
</svg>
